<svg xmlns="http://www.w3.org/2000/svg" width="1360" height="500" viewBox="0 0 1360 500">
<rect width="100%" height="100%" fill="#FFFFFF"/>
<text x="80" y="35" font-size="22" font-family="Arial" fill="#111827">Commitment Violations Before vs After</text>
<line x1="80" y1="400" x2="1320" y2="400" stroke="#374151" stroke-width="1"/>
<line x1="80" y1="70" x2="80" y2="400" stroke="#374151" stroke-width="1"/>
<line x1="80" y1="400.00" x2="1320" y2="400.00" stroke="#E5E7EB" stroke-width="1"/>
<text x="56" y="405.00" font-size="12" font-family="Arial" fill="#374151">0</text>
<line x1="80" y1="70.00" x2="1320" y2="70.00" stroke="#E5E7EB" stroke-width="1"/>
<text x="56" y="75.00" font-size="12" font-family="Arial" fill="#374151">1</text>
<polyline points="80.00,400.00 168.57,400.00 257.14,400.00 345.71,400.00 434.29,400.00 522.86,400.00 611.43,400.00 700.00,400.00 788.57,400.00 877.14,400.00 965.71,400.00 1054.29,400.00 1142.86,400.00 1231.43,400.00 1320.00,400.00" fill="none" stroke="#DC2626" stroke-width="2"/>
<polyline points="80.00,400.00 168.57,400.00 257.14,400.00 345.71,400.00 434.29,400.00 522.86,400.00 611.43,400.00 700.00,400.00 788.57,400.00 877.14,400.00 965.71,400.00 1054.29,400.00 1142.86,400.00 1231.43,400.00 1320.00,400.00" fill="none" stroke="#059669" stroke-width="2"/>
<circle cx="80.00" cy="400.00" r="3" fill="#DC2626"/>
<circle cx="80.00" cy="400.00" r="3" fill="#059669"/>
<text x="80.00" y="420" font-size="10" text-anchor="middle" font-family="Arial" fill="#374151" transform="rotate(25 80.00,420)">easy_001</text>
<circle cx="168.57" cy="400.00" r="3" fill="#DC2626"/>
<circle cx="168.57" cy="400.00" r="3" fill="#059669"/>
<text x="168.57" y="420" font-size="10" text-anchor="middle" font-family="Arial" fill="#374151" transform="rotate(25 168.57,420)">easy_002</text>
<circle cx="257.14" cy="400.00" r="3" fill="#DC2626"/>
<circle cx="257.14" cy="400.00" r="3" fill="#059669"/>
<text x="257.14" y="420" font-size="10" text-anchor="middle" font-family="Arial" fill="#374151" transform="rotate(25 257.14,420)">easy_003</text>
<circle cx="345.71" cy="400.00" r="3" fill="#DC2626"/>
<circle cx="345.71" cy="400.00" r="3" fill="#059669"/>
<text x="345.71" y="420" font-size="10" text-anchor="middle" font-family="Arial" fill="#374151" transform="rotate(25 345.71,420)">easy_004</text>
<circle cx="434.29" cy="400.00" r="3" fill="#DC2626"/>
<circle cx="434.29" cy="400.00" r="3" fill="#059669"/>
<text x="434.29" y="420" font-size="10" text-anchor="middle" font-family="Arial" fill="#374151" transform="rotate(25 434.29,420)">easy_005</text>
<circle cx="522.86" cy="400.00" r="3" fill="#DC2626"/>
<circle cx="522.86" cy="400.00" r="3" fill="#059669"/>
<text x="522.86" y="420" font-size="10" text-anchor="middle" font-family="Arial" fill="#374151" transform="rotate(25 522.86,420)">hard_011</text>
<circle cx="611.43" cy="400.00" r="3" fill="#DC2626"/>
<circle cx="611.43" cy="400.00" r="3" fill="#059669"/>
<text x="611.43" y="420" font-size="10" text-anchor="middle" font-family="Arial" fill="#374151" transform="rotate(25 611.43,420)">hard_012</text>
<circle cx="700.00" cy="400.00" r="3" fill="#DC2626"/>
<circle cx="700.00" cy="400.00" r="3" fill="#059669"/>
<text x="700.00" y="420" font-size="10" text-anchor="middle" font-family="Arial" fill="#374151" transform="rotate(25 700.00,420)">hard_013</text>
<circle cx="788.57" cy="400.00" r="3" fill="#DC2626"/>
<circle cx="788.57" cy="400.00" r="3" fill="#059669"/>
<text x="788.57" y="420" font-size="10" text-anchor="middle" font-family="Arial" fill="#374151" transform="rotate(25 788.57,420)">hard_014</text>
<circle cx="877.14" cy="400.00" r="3" fill="#DC2626"/>
<circle cx="877.14" cy="400.00" r="3" fill="#059669"/>
<text x="877.14" y="420" font-size="10" text-anchor="middle" font-family="Arial" fill="#374151" transform="rotate(25 877.14,420)">hard_015</text>
<circle cx="965.71" cy="400.00" r="3" fill="#DC2626"/>
<circle cx="965.71" cy="400.00" r="3" fill="#059669"/>
<text x="965.71" y="420" font-size="10" text-anchor="middle" font-family="Arial" fill="#374151" transform="rotate(25 965.71,420)">med_006</text>
<circle cx="1054.29" cy="400.00" r="3" fill="#DC2626"/>
<circle cx="1054.29" cy="400.00" r="3" fill="#059669"/>
<text x="1054.29" y="420" font-size="10" text-anchor="middle" font-family="Arial" fill="#374151" transform="rotate(25 1054.29,420)">med_007</text>
<circle cx="1142.86" cy="400.00" r="3" fill="#DC2626"/>
<circle cx="1142.86" cy="400.00" r="3" fill="#059669"/>
<text x="1142.86" y="420" font-size="10" text-anchor="middle" font-family="Arial" fill="#374151" transform="rotate(25 1142.86,420)">med_008</text>
<circle cx="1231.43" cy="400.00" r="3" fill="#DC2626"/>
<circle cx="1231.43" cy="400.00" r="3" fill="#059669"/>
<text x="1231.43" y="420" font-size="10" text-anchor="middle" font-family="Arial" fill="#374151" transform="rotate(25 1231.43,420)">med_009</text>
<circle cx="1320.00" cy="400.00" r="3" fill="#DC2626"/>
<circle cx="1320.00" cy="400.00" r="3" fill="#059669"/>
<text x="1320.00" y="420" font-size="10" text-anchor="middle" font-family="Arial" fill="#374151" transform="rotate(25 1320.00,420)">med_010</text>
<line x1="1040" y1="47" x2="1060" y2="47" stroke="#DC2626" stroke-width="2"/>
<text x="1065" y="52" font-size="12" font-family="Arial" fill="#111827">Baseline</text>
<line x1="1140" y1="47" x2="1160" y2="47" stroke="#059669" stroke-width="2"/>
<text x="1165" y="52" font-size="12" font-family="Arial" fill="#111827">Improved</text>
</svg>